PathFileType	4	(X/Y/Z)	/Users/itak/Documents/Research/Walk-IL/dataset/trc/00507_00183.trc
DataRate	CameraRate	NumFrames	NumMarkers	Units	OrigDataRate	OrigDataStartFrame	OrigNumFrames
100.000000	100.000000	4	53	mm	100.000000	0	341
Frame#	Time	RPSI			LPSI			L3			STRN			T10			C7			CLAV			RBAK			LBAK			LSHO			LUPA			LAEL			LAOL			LWTS			LWPS			LFRA			LIFD			LHPS			LHTS			RSHO			RUPA			RAEL			RAOL			RWTS			RWPS			RFRA			RIFD			RHTS			RHPS			RBHD			LFHD			RFHD			LBHD			LHIP			RASI			LASI			LKNE			LTHI			LANK			LTIP			LTOE			LMT1			LMT5			LHEE			RKNE			RTHI			RANK			RTIP			RTOE			RMT1			RMT5			RHEE			RHIP			
		X1	Y1	Z1	X2	Y2	Z2	X3	Y3	Z3	X4	Y4	Z4	X5	Y5	Z5	X6	Y6	Z6	X7	Y7	Z7	X8	Y8	Z8	X9	Y9	Z9	X10	Y10	Z10	X11	Y11	Z11	X12	Y12	Z12	X13	Y13	Z13	X14	Y14	Z14	X15	Y15	Z15	X16	Y16	Z16	X17	Y17	Z17	X18	Y18	Z18	X19	Y19	Z19	X20	Y20	Z20	X21	Y21	Z21	X22	Y22	Z22	X23	Y23	Z23	X24	Y24	Z24	X25	Y25	Z25	X26	Y26	Z26	X27	Y27	Z27	X28	Y28	Z28	X29	Y29	Z29	X30	Y30	Z30	X31	Y31	Z31	X32	Y32	Z32	X33	Y33	Z33	X34	Y34	Z34	X35	Y35	Z35	X36	Y36	Z36	X37	Y37	Z37	X38	Y38	Z38	X39	Y39	Z39	X40	Y40	Z40	X41	Y41	Z41	X42	Y42	Z42	X43	Y43	Z43	X44	Y44	Z44	X45	Y45	Z45	X46	Y46	Z46	X47	Y47	Z47	X48	Y48	Z48	X49	Y49	Z49	X50	Y50	Z50	X51	Y51	Z51	X52	Y52	Z52	X53	Y53	Z53	

1	0	-1128.406494140625	969.3400268554688	-461.0826110839844	-1060.143188476562	970.9761962890625	-564.909423828125	-1105.916748046875	1030.54052734375	-523.841552734375	-912.1182250976562	1199.63232421875	-416.743408203125	-1121.533813476562	1136.953125	-529.1095581054688	-1084.136108398438	1367.448852539062	-503.630859375	-945.814208984375	1293.84375	-433.8568420410156	-1163.587768554688	1243.400634765625	-450.9580993652344	-1066.115966796875	1313.180053710938	-590.427490234375	-949.9520874023438	1363.0947265625	-614.8961181640625	-934.6683349609375	1236.8076171875	-675.1076049804688	-912.436767578125	1026.61865234375	-692.9810791015625	-1005.240844726562	1016.542297363281	-656.6113891601562	-836.642333984375	842.9445190429688	-619.1838989257812	-895.1465454101562	802.1751708984375	-680.8797607421875	-894.65234375	941.9810180664062	-686.2385864257812	-831.713623046875	688.5481567382812	-597.8531494140625	-869.7633666992188	750.5032348632812	-667.4088134765625	-818.5508422851562	765.476318359375	-630.267822265625	-1104.985961914062	1360.95068359375	-347.5282287597656	-1146.635131835938	1292.905639648438	-306.1908874511719	-1155.989379882812	1023.6142578125	-268.0436706542969	-1185.292236328125	1006.409973144531	-325.3144226074219	-1035.749877929688	829.2504272460938	-256.3510131835938	-1121.378173828125	802.3706665039062	-239.3040771484375	-1152.774780273438	969.4063720703125	-259.5731506347656	-1026.750244140625	669.60693359375	-250.7168731689453	-1025.653930664062	737.0894165039062	-226.4783782958984	-1096.175903320312	730.7288818359375	-229.4754943847656	-1099.6357421875	1516.47802734375	-419.7995910644531	-925.6682739257812	1596.857177734375	-479.3541564941406	-993.2905883789062	1589.863403320312	-371.6802368164062	-1027.1015625	1518.639038085938	-561.6368408203125	-899.6064453125	895.7766723632812	-617.0262451171875	-988.127685546875	907.0665283203125	-303.7617797851562	-860.3566284179688	925.6035766601562	-509.6762084960938	-924.4469604492188	473.0756530761719	-595.268798828125	-895.2881469726562	630.6458129882812	-602.7392578125	-1027.357788085938	51.81908416748047	-665.6864013671875	-955.745849609375	326.6011657714844	-622.6592407226562	-899.8655395507812	38.67494201660156	-504.4215698242188	-983.6017456054688	40.3675651550293	-522.8123779296875	-931.4502563476562	47.48201370239258	-610.3657836914062	-1102.27490234375	41.82486343383789	-645.6885375976562	-1099.103515625	477.0904541015625	-347.1342468261719	-1093.347534179688	734.7344360351562	-293.0335083007812	-1168.351440429688	50.92502593994141	-430.5770263671875	-1096.873901367188	332.2769165039062	-371.5135498046875	-974.1799926757812	42.41213989257812	-366.8248596191406	-1011.712524414062	45.86592483520508	-433.5505676269531	-1077.765747070312	47.74773406982422	-361.1113586425781	-1191.036743164062	40.40391159057617	-497.9070434570312	-1107.683959960938	861.937744140625	-305.0260314941406	
2	0.01	-1128.034301757812	969.6156005859375	-461.043212890625	-1060.1171875	971.0149536132812	-564.9354858398438	-1105.827392578125	1030.50927734375	-523.9043579101562	-912.0238647460938	1199.582641601562	-416.7732543945312	-1121.449829101562	1136.930908203125	-529.1556396484375	-1083.9873046875	1367.405517578125	-503.6818542480469	-945.7119750976562	1293.794555664062	-433.9224853515625	-1163.436889648438	1243.373291015625	-451.0348510742188	-1065.982177734375	1313.188842773438	-590.5391845703125	-949.8502197265625	1363.051147460938	-614.9447021484375	-934.5728149414062	1236.776245117188	-675.1795654296875	-912.3397216796875	1026.60693359375	-693.0657958984375	-1005.171020507812	1016.564636230469	-656.6530151367188	-836.5977783203125	842.9146118164062	-619.2817993164062	-895.1221313476562	802.138427734375	-680.9447631835938	-894.568603515625	941.9354248046875	-686.2832641601562	-831.7494506835938	688.4850463867188	-597.9288330078125	-869.8004150390625	750.4061889648438	-667.4099731445312	-818.5281372070312	765.4257202148438	-630.3155517578125	-1104.847412109375	1360.933349609375	-347.5868530273438	-1146.502807617188	1292.887817382812	-306.2237854003906	-1155.895751953125	1023.599487304688	-268.0758056640625	-1185.170532226562	1006.403564453125	-325.3760681152344	-1035.717163085938	829.196044921875	-256.3915100097656	-1121.299682617188	802.334716796875	-239.3971252441406	-1152.67578125	969.377197265625	-259.63427734375	-1026.754150390625	669.5459594726562	-250.8081970214844	-1025.639892578125	737.0223999023438	-226.5113677978516	-1096.16650390625	730.7047119140625	-229.534423828125	-1099.480346679688	1516.490234375	-419.8449401855469	-925.4706420898438	1596.784545898438	-479.4201354980469	-993.160400390625	1589.855834960938	-371.7395629882812	-1026.892822265625	1518.595092773438	-561.6921997070312	-899.5137329101562	895.7617797851562	-617.08056640625	-988.0122680664062	906.9930419921875	-303.8814086914062	-860.2063598632812	925.5585327148438	-509.7604370117188	-924.27734375	473.1080322265625	-595.260498046875	-895.2249145507812	630.6342163085938	-602.8472900390625	-1027.340698242188	51.81769561767578	-665.709716796875	-955.7513427734375	326.5429077148438	-622.7482299804688	-899.8944091796875	38.69429016113281	-504.430419921875	-983.5994873046875	40.37359619140625	-522.815673828125	-931.4508056640625	47.49138259887695	-610.3748779296875	-1102.274536132812	41.80385971069336	-645.698486328125	-1099.092407226562	477.0684509277344	-347.2407836914062	-1093.369750976562	734.7017822265625	-293.1098937988281	-1168.334594726562	50.92604827880859	-430.6086120605469	-1096.849365234375	332.2467041015625	-371.5755920410156	-974.1939697265625	42.44882202148438	-366.8251342773438	-1011.709594726562	45.87543106079102	-433.5494995117188	-1077.760498046875	47.76690292358398	-361.1245727539062	-1191.059204101562	40.37052154541016	-497.8923034667969	-1107.932983398438	862.1450805664062	-305.3231811523438	
3	0.02	-1127.637451171875	969.888671875	-461.034423828125	-1060.0654296875	971.0624389648438	-564.9752197265625	-1105.716918945312	1030.46630859375	-523.9769897460938	-911.8974609375	1199.51513671875	-416.8135375976562	-1121.340454101562	1136.900146484375	-529.2161254882812	-1083.79150390625	1367.349243164062	-503.7427673339844	-945.5743408203125	1293.728881835938	-434.008544921875	-1163.250854492188	1243.337646484375	-451.123291015625	-1065.813598632812	1313.193969726562	-590.6767578125	-949.712890625	1362.99462890625	-615.0064086914062	-934.4508056640625	1236.732666015625	-675.263916015625	-912.214599609375	1026.583251953125	-693.170654296875	-1005.096862792969	1016.58544921875	-656.7135009765625	-836.5510864257812	842.8641357421875	-619.4080810546875	-895.0899658203125	802.0972290039062	-681.037353515625	-894.4464721679688	941.8744506835938	-686.345947265625	-831.7760009765625	688.403564453125	-598.033203125	-869.83837890625	750.2645263671875	-667.4142456054688	-818.4793701171875	765.3665771484375	-630.3899536132812	-1104.665649414062	1360.90966796875	-347.6556091308594	-1146.33251953125	1292.86181640625	-306.260498046875	-1155.771484375	1023.57861328125	-268.1214904785156	-1185.018798828125	1006.391052246094	-325.4572448730469	-1035.67529296875	829.1272583007812	-256.441162109375	-1121.20751953125	802.2857055664062	-239.5134887695312	-1152.547241210938	969.3344116210938	-259.7136840820312	-1026.768188476562	669.4664306640625	-250.9143371582031	-1025.62060546875	736.9307250976562	-226.5653381347656	-1096.156005859375	730.6708374023438	-229.6051330566406	-1099.284301757812	1516.4990234375	-419.9002075195312	-925.21533203125	1596.68994140625	-479.5000610351562	-992.9974975585938	1589.843505859375	-371.815185546875	-1026.63720703125	1518.532470703125	-561.7572631835938	-899.3797607421875	895.738037109375	-617.1536865234375	-987.8748168945312	906.904052734375	-304.0213012695312	-860.02001953125	925.481689453125	-509.8743286132812	-924.092529296875	473.1353759765625	-595.2635498046875	-895.1512451171875	630.6116333007812	-602.9882202148438	-1027.325317382812	51.81384658813477	-665.7392578125	-955.7073974609375	326.4810485839844	-622.827392578125	-899.922119140625	38.7159309387207	-504.443115234375	-983.5977172851562	40.3795051574707	-522.8193969726562	-931.4531860351562	47.5035285949707	-610.3856811523438	-1102.275634765625	41.77559661865234	-645.7120971679688	-1099.082763671875	477.0423278808594	-347.3788757324219	-1093.381469726562	734.65966796875	-293.2249450683594	-1168.31494140625	50.92430877685547	-430.648681640625	-1096.820922851562	332.2102355957031	-371.6488647460938	-974.2115478515625	42.49737930297852	-366.8255920410156	-1011.706298828125	45.89002990722656	-433.5444030761719	-1077.756225585938	47.79247283935547	-361.1414489746094	-1191.084350585938	40.3236198425293	-497.8783874511719	-1108.27880859375	862.4313354492188	-305.7031860351562	
4	0.03	-1127.248901367188	970.1314086914062	-461.0647583007812	-1059.98046875	971.1143188476562	-565.0303955078125	-1105.591796875	1030.4130859375	-524.0533447265625	-911.7401123046875	1199.430419921875	-416.8646240234375	-1121.208129882812	1136.86181640625	-529.2886962890625	-1083.552856445312	1367.282104492188	-503.8094177246094	-945.4022827148438	1293.647705078125	-434.1111145019531	-1163.039184570312	1243.2958984375	-451.2145690917969	-1065.615966796875	1313.192016601562	-590.8299560546875	-949.5399780273438	1362.927001953125	-615.0789184570312	-934.3026733398438	1236.67724609375	-675.3544921875	-912.0660400390625	1026.543823242188	-693.2902221679688	-1005.023498535156	1016.599792480469	-656.7950439453125	-836.508544921875	842.7910766601562	-619.5592041015625	-895.0531005859375	802.0572509765625	-681.15625	-894.2853393554688	941.7998657226562	-686.4275512695312	-831.7813110351562	688.3096923828125	-598.1671752929688	-869.8678588867188	750.077392578125	-667.4262084960938	-818.3949584960938	765.3043823242188	-630.4969482421875	-1104.4453125	1360.879516601562	-347.7285461425781	-1146.128540039062	1292.827880859375	-306.2973327636719	-1155.618041992188	1023.551391601562	-268.1806640625	-1184.844116210938	1006.37158203125	-325.5531616210938	-1035.624389648438	829.0459594726562	-256.499267578125	-1121.109008789062	802.2243041992188	-239.6464691162109	-1152.392333984375	969.2789916992188	-259.80859375	-1026.794555664062	669.3701782226562	-251.0296325683594	-1025.592407226562	736.8150634765625	-226.6468200683594	-1096.14404296875	730.6265258789062	-229.6852264404297	-1099.052612304688	1516.502075195312	-419.9639282226562	-924.9110107421875	1596.57861328125	-479.5890197753906	-992.8048706054688	1589.826782226562	-371.9028930664062	-1026.345581054688	1518.451538085938	-561.8289794921875	-899.205078125	895.7047119140625	-617.244140625	-987.72509765625	906.8053588867188	-304.1694030761719	-859.8139038085938	925.36669921875	-510.0165405273438	-923.9093017578125	473.1488037109375	-595.283203125	-895.071044921875	630.5784912109375	-603.1519775390625	-1027.31396484375	51.80609893798828	-665.7736206054688	-955.6044921875	326.4193420410156	-622.8847045898438	-899.9458618164062	38.7385368347168	-504.4593200683594	-983.5970458984375	40.38480758666992	-522.8233642578125	-931.4581298828125	47.51763153076172	-610.397705078125	-1102.277465820312	41.73970794677734	-645.7312622070312	-1099.074829101562	477.0130615234375	-347.540771484375	-1093.384765625	734.6097412109375	-293.37158203125	-1168.294311523438	50.9188117980957	-430.695556640625	-1096.789306640625	332.1694641113281	-371.7286682128906	-974.2322387695312	42.55607986450195	-366.8261108398438	-1011.70361328125	45.90971755981445	-433.5348510742188	-1077.754028320312	47.82336807250977	-361.1609802246094	-1191.10986328125	40.26333236694336	-497.8670043945312	-1108.71875	862.7943725585938	-306.1532287597656	
